# xmcd
#
# Track frame offsets: 
#        150
#        18008
#        30066
#        49226
#        82029
#        98894
#        124405
#        146245
#
# Disc length: 2570 seconds
#
# Revision: 0
# Processed by: cddbd v1.5.2PL0 Copyright (c) Steve Scherf et al.
# Submitted via: ExactAudioCopy v1.0b3
#
DISCID=620a0808
DTITLE=Agalloch - Whitedivisiongrey CD 1 (The White)
DYEAR=2011
DGENRE=Metal
TTITLE0=The Isle Of Summer
TTITLE1=Birch Black
TTITLE2=Hollow Stone
TTITLE3=Pantheist
TTITLE4=Birch White
TTITLE5=Sowilo Rune
TTITLE6=Summerisle - Reprise
TTITLE7=Nest - Haunted Birds
EXTD=
EXTT0=
EXTT1=
EXTT2=
EXTT3=
EXTT4=
EXTT5=
EXTT6=
EXTT7=
PLAYORDER=
